/* XPM */
static char *icon_paint_brush[] = {
/* columns rows colors chars-per-pixel */
"24 24 7 1",
"  c black",
". c #444444",
"X c #808080",
"o c #888888",
"O c #BBBBBB",
"+ c gray86",
"@ c gray100",
/* pixels */
"@@@@@@@@@@@@@@@@OOOOo+++",
"@@@@@@@@@@@@@@@@oO+++o++",
"@@@@@@@@@@@@@@@OOo++++oO",
"@@@@@@@@@@@@@@@O++o+++Oo",
"@@@@@@@@@@@XXXXO+++o++OO",
"@@@@@@@XXXXXXXXX++++oOOO",
"@@@@@@@XXXXXXXXXXX++OoOO",
"@@@@@@XXXXX........OOOoO",
"@@@@@@XXXX..........OOOo",
"@@@@@XXX............OOOO",
"@@@@@XXX...........  OO@",
"@@@@@XXX...........  @@@",
"@@@@@XXX...........  @@@",
"@@@@XXXX...........  @@@",
"@@@@XXXX...........  @@@",
"@@@@XXX............  @@@",
"@@@@XXX...........   @@@",
"@@@XXXX...........  @@@@",
"@@@XXXX..........   @@@@",
"@@XXXX..........   @@@@@",
"@XXX..........    @@@@@@",
"XXX..........    @@@@@@@",
"...........    @@@@@@@@@",
"@@@...... @@@@@@@@@@@@@@"
};
