/* XPM */
static char *icon_airbrush[] = {
/* columns rows colors chars-per-pixel */
"24 24 7 1 ",
"  c black",
". c #444444",
"X c #515151",
"o c #888888",
"O c #ABAAAB",
"+ c #BBBBBB",
"@ c white",
/* pixels */
"@@@@@@@@@@oO@@@@@@@@@@@@",
"@@@@@@@@@oO+O@@@@@@@@@@@",
"@@@@@@@@oO+Ooo@@@@@@@@@@",
"@@@@@@@oOOOooo@@@@@@@@@@",
"@@@@@@oOOOooo@@@@@@@@@@@",
"@@@@@@o+Oooo@@@@@@@@@@@@",
"OO+OOO+oooooOOO++++OOOOO",
"@@oooooooooooooooooooooo",
"@@@o@@@@oooooo@@oooooooo",
"@@@+@@@@@Oooo@@@@@@@@@@@",
"@@@@@@@@@Oooo@@@@@@@@@@@",
"@@@@@@@@ XX   @@@@@@@@@@",
"@@@@@@  X...    @@@@@@@@",
"@@@@@@ XX...    @@@@@@@@",
"@@@@@@ XX....   @@@@@@@@",
"@@@@@@          @@@@@@@@",
"@@@@@@ XX....   @@@@@@@@",
"@@@@@@          @@@@@@@@",
"@@@@@@ XX....   @@@@@@@@",
"@@@@@@          @@@@@@@@",
"@@@@@@ X....    @@@@@@@@",
"@@@@@@ X....    @@@@@@@@",
"@@@@@@  ....    @@@@@@@@",
"@@@@@@@@      @@@@@@@@@@"
};
