/* XPM */
static char *icon_pencil[] = {
/* columns rows colors chars-per-pixel */
"24 24 8 1",
"  c black",
". c #444444",
"X c #DBA400",
"o c #F2CF1D",
"O c #808080",
"+ c #BBBBBB",
"@ c #FFEAC4",
"# c gray100",
/* pixels */
"################++++OOOO",
"###############++++OOOOO",
"##############++++OOOOOO",
"#############++++OOOOOOO",
"############++++OOOOOOOO",
"###########++++OOOOOOOO.",
"##########++++OOOOOOOO..",
"#########++++OOOOOOOO...",
"########++++OOOOOOOO....",
"#######@@@+OOOOOOOO.....",
"######@@@@OOOOOOOO......",
"#####@@@@@OOOOOOO......#",
"#####@@@@ooooOOO......##",
"####@@@@oooooOO......###",
"####@@@@oooooO......####",
"####@@@oooooooXX...#####",
"###@@@oooooooXXX..######",
"###@@oooooXXXXX..#######",
"##@@ooooXXXXXXX#########",
"##  oooXXXXXX###########",
"#    XXXXX##############",
"#    XX#################",
"    ####################",
"  ######################"
};
