/* XPM */
static char *icon_text[] = {
/* columns rows colors chars-per-pixel */
"24 24 71 1 ",
"  c black",
". c #161616",
"X c gray11",
"o c #2A2A2A",
"O c gray18",
"+ c gray22",
"@ c gray23",
"# c gray24",
"$ c gray25",
"% c gray26",
"& c gray28",
"* c #494949",
"= c gray31",
"- c #535353",
"; c #585858",
": c gray36",
"> c #5F5F5F",
", c #606060",
"< c #626262",
"1 c #656565",
"2 c #6D6D6D",
"3 c gray43",
"4 c gray49",
"5 c gray50",
"6 c #868686",
"7 c gray55",
"8 c #8E8E8E",
"9 c gray57",
"0 c gray58",
"q c #989898",
"w c gray61",
"e c gray64",
"r c #A4A4A4",
"t c #AAAAAA",
"y c #ACACAC",
"u c #AEAEAE",
"i c gray69",
"p c #B4B4B4",
"a c gray71",
"s c #B7B7B7",
"d c gray72",
"f c #BCBCBC",
"g c gray74",
"h c gray75",
"j c #C0C0C0",
"k c #C5C5C5",
"l c gray78",
"z c #C8C8C8",
"x c #D2D2D2",
"c c LightGray",
"v c gray84",
"b c #D8D8D8",
"n c gray86",
"m c #DDDDDD",
"M c #DFDFDF",
"N c #E4E4E4",
"B c #E6E6E6",
"V c gray92",
"C c #ECECEC",
"Z c gray93",
"A c #F1F1F1",
"S c gray96",
"D c #F6F6F6",
"F c gray97",
"G c #F8F8F8",
"H c #F9F9F9",
"J c gray98",
"K c gray99",
"L c #FDFDFD",
"P c #FEFEFE",
"I c white",
/* pixels */
"IIIIIIIIIIIIIIIIIIIIIIII",
"IIIIIIIIIIIIIIIIIIIIIIII",
"IIIIIIIIIIIFOBIIIIIIIIII",
"IIIIIIIIIIIl rIIIIIIIIII",
"IIIIIIIIIII2 ODIIIIIIIII",
"IIIIIIIIIIm+  jIIIIIIIII",
"IIIIIIIIII9i6 ,PIIIIIIII",
"IIIIIIIIIZ.Zc  bIIIIIIII",
"IIIIIIIIIt8IK- 7IIIIIIII",
"IIIIIIIIF+bIIs  CIIIIIII",
"IIIIIIIIj>PIIA. uIIIIIII",
"IIIIIIIL:hIIII0 $HIIIIII",
"IIIIIIIcoSIIIIn  zIIIIII",
"IIIIIII5qDDDDDS: 3IIIIII",
"IIIIIIN           MIIIII",
"IIIIIIw4IIIIIIIH# qIIIII",
"IIIIIAXxIIIIIIIIy XAIIII",
"IIIIIp=KIIIIIIIIV  aIIII",
"IIIIJ&iIIIIIIIIII6 %GIII",
"IIIKr kIIIIIIIIIId  tIII",
"IIg;$*#>fIIIIIIe1@*&+<vI",
"IIIIIIIIIIIIIIIIIIIIIIII",
"IIIIIIIIIIIIIIIIIIIIIIII",
"IIIIIIIIIIIIIIIIIIIIIIII"
};
