/* XPM */
static char *icon_paintbox-clearbg[] = {
/* columns rows colors chars-per-pixel */
"24 24 2 1",
"  c gray71",
". c gray87",
/* pixels */
"............            ",
"............            ",
"............            ",
"............            ",
"............            ",
"............            ",
"............            ",
"............            ",
"............            ",
"............            ",
"............            ",
"............            ",
"            ............",
"            ............",
"            ............",
"            ............",
"            ............",
"            ............",
"            ............",
"            ............",
"            ............",
"            ............",
"            ............",
"            ............"
};
