/* XPM */
static char *icon_text[] = {
/* columns rows colors chars-per-pixel */
"24 24 2 1",
"  c black",
". c gray100",
/* pixels */
"........................",
"........................",
"............ ...........",
"............ ...........",
"...........   ..........",
"...........   ..........",
"..........     .........",
"..........     .........",
".........  .    ........",
".........  ..   ........",
"........  ...    .......",
"........  ....   .......",
"........ .....    ......",
".......  ......   ......",
".......            .....",
"......  ........   .....",
"...... .........    ....",
".....  ..........   ....",
"..... ...........    ...",
"....  ............   ...",
"...    .........       .",
"........................",
"........................",
"........................"
};
