/* XPM */
static char *icon_eye_dropper[] = {
/* columns rows colors chars-per-pixel */
"24 24 6 1",
"  c black",
". c #444444",
"X c #808080",
"o c #BBBBBB",
"O c #CDCDCD",
"+ c gray100",
/* pixels */
"++++++++++oX.+++++++++++",
"++++++++++oX.+++++++++++",
"++++++++++oX.+++++++++++",
"++++++++++oX.+++++++++++",
"+++++++++oXXX.++++++++++",
"+++++++ooXXXXXX.++++++++",
"+++++++ooXXXXXX.++++++++",
"+++++++ooXXXX...++++++++",
"++++++++++ooO+++++++++++",
"++++++++++ooO+++++++++++",
"++++++++++o O+++++++++++",
"++++++++++o O+++++++++++",
"++++++++++o O+++++++++++",
"++++++++++o O+++++++++++",
"++++++++++o O+++++++++++",
"++++++++++o O+++++++++++",
"++++++++++o O+++++++++++",
"++++++++++o O+++++++++++",
"++++++++++o O+++++++++++",
"++++++++++o O+++++++++++",
"++++++++++o O+++++++++++",
"++++++++++o O+++++++++++",
"++++++++++ooO+++++++++++",
"+++++++++++o++++++++++++"
};
