/* XPM */
static char *icon_app[] = {
/* columns rows colors chars-per-pixel */
"48 48 256 2",
"   c black",
".  c gray4",
"X  c #1E1E1E",
"o  c #161616",
"O  c #252525",
"+  c #2D2D2D",
"@  c gray20",
"#  c #3C3C3C",
"$  c #2A3E39",
"%  c #2F2B47",
"&  c #3C3F4C",
"*  c #353753",
"=  c #203B6A",
"-  c #323263",
";  c #312D6F",
":  c #101075",
">  c #185F14",
",  c #1E7517",
"<  c #3E4C3E",
"1  c #375F3A",
"2  c #227E3C",
"3  c #0C5074",
"4  c #094A7A",
"5  c #0E6A5F",
"6  c #117F4F",
"7  c #0D6464",
"8  c #3C4646",
"9  c #234464",
"0  c #276A43",
"q  c #571816",
"w  c #503811",
"e  c #483C2C",
"r  c #7C0808",
"t  c #6D2C2C",
"y  c #752E2E",
"u  c #7F3D3D",
"i  c #4A3E4B",
"p  c #413C50",
"a  c #523D52",
"s  c #652E73",
"d  c #6C336B",
"f  c #7C2E7A",
"g  c #713270",
"h  c #4B2E6B",
"j  c #46423E",
"k  c #4B443D",
"l  c #444D3D",
"z  c #4D503D",
"x  c #544637",
"c  c #584736",
"v  c #5F5338",
"b  c #447D3F",
"n  c #7F4F00",
"m  c #7B521B",
"M  c #684A29",
"N  c #644833",
"B  c #764D25",
"V  c #7B5E33",
"C  c #6D5B25",
"Z  c #7D632E",
"A  c gray26",
"S  c #4C4C4C",
"D  c #4D4745",
"F  c gray33",
"G  c #5B5B5B",
"H  c #565F58",
"J  c #5C5D6D",
"K  c #477D44",
"L  c #624040",
"P  c #735F5F",
"I  c #626046",
"U  c #686558",
"Y  c #716E45",
"T  c #7D794D",
"R  c #646464",
"E  c #6D6D6D",
"W  c #686861",
"Q  c gray45",
"!  c #7B7B7B",
"~  c #747579",
"^  c #72746A",
"/  c #070296",
"(  c #04038A",
")  c #0000A7",
"_  c #0801B7",
"`  c #0314A7",
"'  c #1F0DA0",
"]  c #0A2C8F",
"[  c #073190",
"{  c #2B1D84",
"}  c #21119F",
"|  c #2E0AAD",
" . c #2300BF",
".. c #0B00C9",
"X. c #1500D8",
"o. c #1700CA",
"O. c #3D00C6",
"+. c #5B1F90",
"@. c #742883",
"#. c #6E0FB3",
"$. c #5A02CB",
"%. c #4401C8",
"&. c #7600D5",
"*. c #777782",
"=. c #6C6A83",
"-. c #1B8811",
";. c #159E35",
":. c #14B209",
">. c #18BC1C",
",. c #18A12F",
"<. c #2F931F",
"1. c #2E8827",
"2. c #11844A",
"3. c #0DC900",
"4. c #0FD000",
"5. c #18D605",
"6. c #0CE300",
"7. c #0FF300",
"8. c #11EB00",
"9. c #3FDA03",
"0. c #31C60A",
"q. c #35E100",
"w. c #659920",
"e. c #4F8C2F",
"r. c #458441",
"t. c #7C8065",
"y. c #798B78",
"u. c #678565",
"i. c #5BE700",
"p. c #7BEC00",
"a. c #873838",
"s. c #AD0202",
"d. c #B90303",
"f. c #AD3717",
"g. c #802C7E",
"h. c #8F4E1D",
"j. c #875507",
"k. c #885316",
"l. c #98570A",
"z. c #975214",
"x. c #814E22",
"c. c #81791E",
"v. c #9F6600",
"b. c #926B1F",
"n. c #A55A03",
"m. c #AA5A01",
"M. c #A5550D",
"N. c #B45A00",
"B. c #B75707",
"V. c #A65212",
"C. c #A86D06",
"Z. c #A76117",
"A. c #AD7104",
"S. c #AA7D1E",
"D. c #BA7C05",
"F. c #BA6A34",
"G. c #856F40",
"H. c #8B7E7E",
"J. c #856868",
"K. c #CF0000",
"L. c #D80000",
"P. c #CD3714",
"I. c #E50000",
"U. c #FE0101",
"Y. c #F90D02",
"T. c #FF1100",
"R. c #EB1515",
"E. c #FF2A00",
"W. c #FE3000",
"Q. c #E12915",
"!. c #E33532",
"~. c #C25A00",
"^. c #C15606",
"/. c #C75713",
"(. c #C24615",
"). c #FE4900",
"_. c #E95A27",
"`. c #FD6700",
"'. c #D75348",
"]. c #F8564F",
"[. c #F56666",
"{. c #F3724F",
"}. c #982495",
"|. c #872A85",
" X c #A81EA5",
".X c #B21BAE",
"XX c #B719B3",
"oX c #8F00DB",
"OX c #9500DC",
"+X c #B007D6",
"@X c #AF01E3",
"#X c #C215BD",
"$X c #D40ECE",
"%X c #C912C6",
"&X c #C900E9",
"*X c #E907E3",
"=X c #E500F1",
"-X c #F503EE",
";X c #FE00F6",
":X c #FF00F8",
">X c #F702F1",
",X c #9E930C",
"<X c #9B9215",
"1X c #BDB106",
"2X c #A9B121",
"3X c #BAAC23",
"4X c #92864E",
"5X c #8C867C",
"6X c #B4835F",
"7X c #9EF100",
"8X c #94E707",
"9X c #A0E803",
"0X c #BFF600",
"qX c #A2C340",
"wX c #C98400",
"eX c #D18A00",
"rX c #D1920E",
"tX c #CA923B",
"yX c #C7B800",
"uX c #E89B00",
"iX c #FD8600",
"pX c #FD9F00",
"aX c #FFAB00",
"sX c #F8A401",
"dX c #FCBB01",
"fX c #D2B579",
"gX c #DFD000",
"hX c #C7F700",
"jX c #E9D900",
"kX c #FCC400",
"lX c #FCDA00",
"zX c #E4FC00",
"xX c #F1E000",
"cX c #FAF601",
"vX c gray52",
"bX c #8B8B8B",
"nX c #888A86",
"mX c gray58",
"MX c gray61",
"NX c #938E89",
"BX c #BDAF93",
"VX c #A4A4A4",
"CX c #AAAAAA",
"ZX c #ACA4A4",
"AX c gray70",
"SX c gray73",
"DX c #EE9090",
"FX c #C9ACAC",
"GX c #C3C3C3",
"HX c #CBCBCB",
"JX c gray82",
"KX c #DDDDDD",
"LX c #E4E4E4",
"PX c #E9E9E9",
"IX c #F3F3F3",
"UX c #ECCECE",
/* pixels */
"A A A A A A A A A A A A A A A A A A A A A A A A A A A A A A D A A A A A A A A A A A A A A A A A ",
"A A A A A A A A A A A A A A A A A A A A A A A A A A A A A x k A A A A A A A A A A A A A A A A A ",
"A A A A A A A A A A A A A A A 8 A A A A A A A D A A A A c v A A A A A A A A A A A A A A A A A A ",
"A A A A A A A A A A A A A A A S A A A A A A A A A A A N M A A A A A A A A A A A A A A A A A A A ",
"A A A A A A A A A A A A A A A A A A A A A A A A A A B m A A A A A A A D A A A A A A A A A A A A ",
"A A A A A A A A A A A A A A A A A A A A A A A A A x.k.A A A A A A A A A A A A A D A A A A A A A ",
"A A A A A A A A A A D A A A A A A A A A A A A A h.z.A A A A A A A A A A A A A A A A A A A A A A ",
"A A A A A A A A A A A A A A A A A A A A A A A z.l.k A A A A A A A A A A A A A A A A A A A A A A ",
"A A A A A A A D A A A A A A A A A A A A A k M.n.x A A A A A a g |.}. X.XXXXX.X}.d D A A A A A A ",
"A A A A A A A A A A A A A A A A A A A A x M.m.c A A i |.XX*X:X:X:X:X:X$X Xf a A A A A A A A A A ",
"A A A A A A A A A A A A A A A A A A A x B.m.c A D  X-X:X;X;X:X;X%X|.S A A A A A A A A A A A A A ",
"A A A A A A A A A A A A A A A A A A N B.m.M A d *X:X:X:X;X*X}.a A A A A A A A A A A A A A A A A ",
"A A A A A A A A A A A A A A A A A M B.N.B A f >X:X:X:X*X|.A A A A A A A A A D A A A A A A A A A ",
"A D A A A A A A A D A A A A A A B B.N.k.A f ;X:X:X:X XD A A A A A A A A A A A A A A A A A A A A ",
"A A A A A A A A A A A A A A A x.B.N.k.A d ;X:X;X>X@.A A A A A A A A A A A A A A A A A A A A A A ",
"A A A A A A A A A A A A A A h.~.N.l.j a *X:X:X-Xg A A A A A A A A A A A A A A A A A A A A A A A ",
"A A A A A A A A A A A A D z.~.N.l.x A %X:X:X;Xg A A A A A A A A A A A A A A A A A A A A A A A A ",
"A A A A A A A A A A A D V.~.N.l.x A @.=X:X:X|.A A A A A A A A A A A A A A A A A A A A A A A A A ",
"A A A A A A A A A A k B.~.N.n.c A D OX&X=XXXA A A A A A A A A A A A S A A A A A A A A A A A A A ",
"A A A A A A A A A x B.~.N.m.M A A +.oX@X+XD A A A A A A A A A A A W r.y.W A A A A A A A A A A A ",
"A A A A A A A A c ^.~.N.n.M A A p $.&.OXs A A A A A A A A A A R 0 :.7.:.r.bXW A A A A A A A A A ",
"A A A A A A A N ^.~.N.m.m A A A { O.$.#.A A A A A A A A A G nX> 6.7.7.7.4.-.H MXE A A A A A A A ",
"A A A A A A U 6XF.N.m.k.A A A & _ o.%.h A A A A A A D D P a.J.y.1.3.6.4., * } { =.MXR 8 A A A A ",
"A A A A A E HXSXVXZ.j.j A A A = ` _ | j A A A A A i W N d.I.s.y 5Xu.1.< { o.X.../ ; ~ VXF A A A ",
"A A v G.G.fXBXMXnXV k A A A 8 3 [ ` ; A A A A A R VXq L.I.L.K.d.r x 5X% ' X.....) : * VXQ A A A ",
"A Z aXaXpXwXA.vXE S 8 A A A 0 7 4 ] 8 A A A S Q G AXZXu s.K.d.q C 1X<XT *.; / ( - ~ VXCXR A A A ",
"A S.aXuXwXC.j.U S A A A A < ,.2.7 9 A A D Q F O O O R SXNXt w <XjXjXjXyXc.U *.J NXMXmXmXG A A A ",
"A <XuXD.C.j.w A A A A A A <.5.;.6 8 A Q ~ + + @ O O X @ ! AXI <XjXjXjXyXc.U bXnXvXvX! F A A A A ",
"i b.C./.Z.e e A A A A A A 9.5.>.0 A nXLXGXE @ @ + O O G CX! VXCXT ,X,XY ~ ! ~ ~ E G A A A A A A ",
"i C f.)./.& A A A D A A w.i.q.5.1 A E vXCXLXAXF O i vXKXIXKXMXQ VXNX^ W R R R F A A A A A A A A ",
"< e Y.E.(.A A A A A A D 9Xp.i.0.A A G E R E MXKXbXS HXIXPXLXJXvXR E F F S S D A A A A A A A A A ",
"D L U.T.P.S S S S S S 2XhX7Xp.e.F S S S F F F G MXHXbXbXHXCXE G A A # A S F F F F G G G G G G G ",
"E W U.U.Q.E E E E E 4XcXzX0X8XE E D + @ A A # # # A MXAXE R @ @ @ + + A R ~ ~ ~ Q ~ ~ ~ ! ~ ! ! ",
"vXvXR.U.U.vXvXbX5XtXdXlXcXzXqX! # # A G bXbXR @ O O O @ # O O O + # A A A G y.mXmXmXmXmXmXmXmXmX",
"VXVX'.U.U.!.'._.`.`.sXdXxXcX^ # A S Q CXCXCXCXVXE + O O O O O # F F F F F F S R mXAXAXAXAXAXAXAX",
"GXGXFXU.U.U.Y.E.).`.iXaXkX3X# S G mXHXHXHXHXHXHXHXGX! + O @ F R R R R R G G S D e J CXHXJXJXJXJX",
"KXKXLXDXY.U.U.Y.W.).`.iXrXz G E AXLXLXPXLXLXPXLXPXPXSXQ G Q Q Q E E Q E G F S A e @ + F JXPXPXPX",
"PXPXPXPXUXDX[.].].{.F.M D G E GXPXPXPXPXPXPXPXPXHXnXE Q E E E E E E R G F S A # @ O # VXPXPXPXPX",
"PXPXPXPXPXPXPXPXSX# @ D F Q HXPXPXPXPXPXPXPXKXMXQ E Q E Q E Q E E R G F S A # + + vXLXPXPXPXPXPX",
"PXPXPXPXPXPXPX~ X @ A G Q JXPXPXPXPXPXPXPXAX~ E E E Q E E Q E E R F S A # @ + R JXPXPXPXPXPXPXPX",
"PXPXPXPXJXGX# X @ A G ! JXPXPXPXPXPXPXHXvXE E Q E E Q E Q Q W G F S A # @ S AXIXPXPXPXPXPXPXPXPX",
"PXPXCXo   . X @ A G ! KXPXPXPXPXPXPXHX~ Q E Q E E Q E E E R G F D 8 # # mXPXPXPXPXPXPXPXPXPXPXPX",
"PXPX@   . X @ A G vXKXPXPXPXPXPXPXPXPXLXCX~ E Q Q Q Q E R G F A # @ ~ KXPXPXPXPXPXPXPXPXPXPXIXPX",
"PXPXO . X @ A F bXLXPXPXPXPXPXPXPXPXPXPXPXKXCXQ E E R G F S A # G GXPXPXPXPXPXPXPXPXPXPXPXPXPXPX",
"PXPX@ X nXmXG MXPXPXPXPXPXPXPXPXPXPXPXPXPXPXPXLXCXE G F S A S CXPXPXPXPXPXPXPXPXPXPXPXPXPXPXPXPX",
"PXPXS mXPXPXLXPXPXIXPXPXPXPXPXPXPXPXPXPXPXPXPXPXPXKXmXS A bXKXPXPXPXPXPXPXPXPXPXPXIXPXPXPXPXPXPX",
"PXPXmXLXPXPXPXPXPXPXPXPXPXPXPXPXPXPXPXPXPXPXPXPXPXPXPXKXJXPXPXPXPXPXPXPXPXPXPXPXPXPXPXPXPXPXPXPX",
"PXPXLXPXPXPXPXPXPXPXPXPXPXPXPXPXPXPXPXPXPXPXPXPXPXPXPXPXPXPXPXPXPXPXPXPXPXPXPXPXPXPXPXPXPXPXPXPX"
};
