/* XPM */
static char *icon_textT[] = {
/* columns rows colors chars-per-pixel */
"24 24 60 1",
"  c black",
". c #010101",
"X c gray5",
"o c gray8",
"O c gray9",
"+ c #191919",
"@ c #1B1B1B",
"# c gray12",
"$ c gray13",
"% c #232323",
"& c #272727",
"* c #2C2C2C",
"= c #323232",
"- c #444444",
"; c gray27",
": c #464646",
"> c gray28",
", c #5B5B5B",
"< c #5D5D5D",
"1 c gray38",
"2 c #626262",
"3 c gray39",
"4 c #646464",
"5 c gray40",
"6 c #6C6C6C",
"7 c gray44",
"8 c gray46",
"9 c #767676",
"0 c #777777",
"q c #7B7B7B",
"w c gray49",
"e c gray59",
"r c #9D9D9D",
"t c #A5A5A5",
"y c #ACACAC",
"u c #AEAEAE",
"i c gray71",
"p c #C1C1C1",
"a c #C3C3C3",
"s c #C6C6C6",
"d c gray79",
"f c #CDCDCD",
"g c gray81",
"h c gray82",
"j c gray83",
"k c gray86",
"l c gray87",
"z c gray89",
"x c gray90",
"c c gray91",
"v c #ECECEC",
"b c gray93",
"n c #F6F6F6",
"m c gray97",
"M c #F8F8F8",
"N c #F9F9F9",
"B c gray98",
"V c #FBFBFB",
"C c #FEFEFE",
"Z c gray100",
/* pixels */
"ZZZZZZZZZZZZZZZZZZZZZZZZ",
"ZZZZZZZZZZZZZZZZZZZZZZZZ",
"ZZZZZZZZZZZZZZZZZZZZZZZZ",
"ZZZZZZZZZZZZZZZZZZZZZZZZ",
"ZZZZZZZZZZZZZZZZZZZZZZZZ",
"ZZZZZZZZZZZeZZZZZZZZZZZZ",
"ZZZZZZZZZZs jZZZZZZZZZZZ",
"ZZZZZZZZZZ5 qZZZZZZZZZZZ",
"ZZZZZZZZZnOX%CZZZZZZZZZZ",
"ZZZZZZZZZt12 dZZZZZZZZZZ",
"ZZZZZZZZZ;hp 7ZZZZZZZZZZ",
"ZZZZZZZZl-ZC%+VZZZZZZZZZ",
"ZZZZZZZZ9exz6 uZZZZZZZZZ",
"ZZZZZZZn&<43, :ZZZZZZZZZ",
"ZZZZZZZr0ZZZZ*.kZZZZZZZZ",
"ZZZZZZZ=hZZZZw 8ZZZZZZZZ",
"ZZZZZZa*ZZZZZf omZZZZZZZ",
"ZZZZZy$@iZZZZC# >gZZZZZZ",
"ZZZZZmVBMZZZZZvcbNZZZZZZ",
"ZZZZZZZZZZZZZZZZZZZZZZZZ",
"ZZZZZZZZZZZZZZZZZZZZZZZZ",
"ZZZZZZZZZZZZZZZZZZZZZZZZ",
"ZZZZZZZZZZZZZZZZZZZZZZZZ",
"ZZZZZZZZZZZZZZZZZZZZZZZZ"
};
