/* XPM */
static char *icon_app[] = {
/* columns rows colors chars-per-pixel */
"32 32 16 1",
"  c black",
". c #0B0B0B",
"X c #444444",
"o c #0000E8",
"O c blue",
"+ c #73C700",
"@ c #77CF00",
"# c #DE0707",
"$ c #F00000",
"% c #F26100",
"& c #FF6600",
"* c #F7E400",
"= c #FFEB00",
"- c #DADBDB",
"; c gray100",
": c None",
/* pixels */
"::::XXXXXXXXXXXXXXXXXXXXXXX:::::",
":::X;;;;;;;;;;;;;;;;;;;;;;;X::::",
"::X;;;;;---;;;;;;;;;---;;;;;X:::",
":X;;;;-OOOoO-;;;;;-@@@@@-;;;;X::",
":X;;;-OOOOOOO-;;;-@@@@@@@-;;;X::",
":X;;-OOOOOooOO-;-@++@@@@@@-;;X::",
":X;;OOoOOOoooOO;@@@++++@@@@;;X::",
":X;-OOooOOoOOOO-@@@@@++@@@+-;X::",
":X;;OoOOOoOooOO;@@@@@@@@@@+;;X::",
":X;;-OOOooOOOo-;-@@@@@@@@@-;;X::",
":X;;;-OooOOOO-;;;-+@@@@@+-;;;X::",
":X;;;;-OOOOO-;;;;;-+@@@@-;;;;X::",
":X;;;;;;---;;;;;;;;;---;;;;;;X::",
":X;;;;-&&&&&-;;;;;-=====-;;;;X::",
":X;;;-&&&&&%&-;;;-**====*-;;;X::",
":X;;-&%&&&&&&&-;-****===*=-;;X::",
":X;;&%%&&%&&&&&;=*****=====;;X::",
":X;-&&&&%%&%%&&-=*****=====-;X::",
":X;;&&&&%&&%&&&;==***======;;X::",
":X;;-&&&&&%%&&-;-==**=====-;;X::",
":X;;;-&&&&%&&-;;;-=**====-;;;X::",
":X;;;;-&&&&&-;;;;;-**===-;;;;X::",
":X;;;;;;---;;;;;;;;;---;;;;;;X::",
":X;;;;- ..  -;;;;;-$$$$$-;;;;X::",
":X;;;-  ...  -;;;-$$$$$$$-;;;X::",
":X;;-   ....  -;-#$$###$$$-;;X::",
":X;;...........;##$$$$$#$$$;;X::",
":X;-     .. ...-##$#$$$#$$$-;X::",
":X;;    ....  .;##$$$$$#$$$;;X::",
":X;;-   ....  -;-#$$###$$$-;;X::",
":X;;;-  ...  -;;;-$$$$$$$-;;;X::",
":X;;;;- ..  -;;;;;-$$$$$-;;;;X::"
};
