/* XPM */
static char *icon_paint_bucket[] = {
/* columns rows colors chars-per-pixel */
"24 24 7 1",
"  c black",
". c #444444",
"X c gray33",
"o c #808080",
"O c #BBBBBB",
"+ c #DDDDDD",
"@ c gray100",
/* pixels */
"@@@@@@@@@@@@@@@@@@@@@@@@",
"@@@@@@@@@@@@@@@@@@@@@@@@",
"@@@@@@@@@+++++++++@@@@@@",
"@@@@@@+++XXXXXXXXX+++@@@",
"@@@@++XXXXXXXXXXXXXXX++@",
"@@@+XXXXXXXXXXXXXXXXXXX+",
"@@@+XXXX            XXX+",
"@OO+XX               XX+",
"OO@o++               ++X",
"O@@ooo+++         +++XXX",
"O@@oooooo+++++++++oooXXX",
"O@@ooooooooooooooooooXXX",
"O@@oooooooooo.oooooooXXX",
"OO@ooooooooOOO.ooooooXXX",
"@OOOoooOOOOOo.oooooooXXX",
"@@@OOOOOooooooooooooXXXX",
"@@@ooooooooooooooooooXXX",
"@@@oooooooooooooooooXXXX",
"@@@ooooooooooooooooooXXX",
"@@@oooooooooooooooooXXXX",
"@@@oooooooooooooooXoXXXX",
"@@@@oooooooooooooooXXXX@",
"@@@@@ooooooooooXXXXXXX@@",
"@@@@@@@@@XXXXXXXXX@@@@@@"
};
