/* XPM */
static char *icon_paint_brush[] = {
/* columns rows colors chars-per-pixel */
"24 24 8 1",
"  c #AE7300",
". c #C78F00",
"X c #D19400",
"o c #DEB845",
"O c #888888",
"+ c #BBBBBB",
"@ c gray86",
"# c gray100",
/* pixels */
"################++++O@@@",
"################O+@@@O@@",
"###############++O@@@@O+",
"###############+@@O@@@+O",
"###########oooo+@@@O@@++",
"#######ooooooooo@@@@O+++",
"#######ooooooooooo@@+O++",
"######oooooXXXXXXXX+++O+",
"######ooooXXXXX.XXXX+++O",
"#####oooXXXXXXXXXXXX++++",
"#####oooXXXXXXXXXXX  ++#",
"#####oooXXXXXXXX.XX  ###",
"#####oooXXXXXXXXXXX  ###",
"####ooooXXXXXX.X.XX  ###",
"####ooooXXXXXXXXX.X  ###",
"####oooXXX.XX.XXXXX  ###",
"####oooXXXXXXXXXXX   ###",
"###ooooXXXXX.X.XXX  ####",
"###ooooXXXX.X.XXX   ####",
"##ooooXXX...XXXX   #####",
"#oooXXXXXXX.XX    ######",
"oooXXXXXXX.XX    #######",
"XXXXXXXXXXX    #########",
"###XXXXXX ##############"
};
