/* XPM */
static char *icon_magnifier[] = {
/* columns rows colors chars-per-pixel */
"24 24 5 1 ",
"  c #444444",
". c gray45",
"X c #B4E2E5",
"o c #DAFEFF",
"O c white",
/* pixels */
"OOOOOO.....OOOOOOOOOOOOO",
"OOOO..XXXXX..OOOOOOOOOOO",
"OOO.XXXXXXXXX.OOOOOOOOOO",
"OO.XXXXooooXXX OOOOOOOOO",
"O.XXXXXXXXXoXXX OOOOOOOO",
"O.XXXXXXXXXXXXX OOOOOOOO",
".XXXXXXXXXXXXXXX OOOOOOO",
".XXXXXXXXXXXXXXX OOOOOOO",
".XXXXXXXXXXXXXXX OOOOOOO",
".XXXXXXXXXXXXXXX OOOOOOO",
".XXXXXXXXXXXXXXX OOOOOOO",
"O XXXXXXXXXXXXX OOOOOOOO",
"O XXXXXXXXXXXXX OOOOOOOO",
"OO XXXXXXXXXXX OOOOOOOOO",
"OOO XXXXXXXXX   OOOOOOOO",
"OOOO  XXXXX    . OOOOOOO",
"OOOOOO     OOO  . OOOOOO",
"OOOOOOOOOOOOOOO  . OOOOO",
"OOOOOOOOOOOOOOOO  . OOOO",
"OOOOOOOOOOOOOOOOO  . OOO",
"OOOOOOOOOOOOOOOOOO  . OO",
"OOOOOOOOOOOOOOOOOOO  . O",
"OOOOOOOOOOOOOOOOOOOO  . ",
"OOOOOOOOOOOOOOOOOOOOO  ."
};
