/* XPM */
static char *icon_line[] = {
/* columns rows colors chars-per-pixel */
"24 24 2 1 ",
"  c black",
". c white",
/* pixels */
"........................",
".. .....................",
".   ....................",
"..   ...................",
"...   ..................",
"....   .................",
".....   ................",
"......   ...............",
".......   ..............",
"........   .............",
".........   ............",
"..........   ...........",
"...........   ..........",
"............   .........",
".............   ........",
"..............   .......",
"...............   ......",
"................   .....",
".................   ....",
"..................   ...",
"...................   ..",
"....................   .",
"..................... ..",
"........................"
};
