/* XPM */
static char *icon_magnifier[] = {
/* columns rows colors chars-per-pixel */
"24 24 4 1",
"  c #444444",
". c gray45",
"X c #BBBBBB",
"o c gray100",
/* pixels */
"oooooo.....ooooooooooooo",
"oooo..XXXXX..ooooooooooo",
"ooo.XXXXXXXXX.oooooooooo",
"oo.XXXXooooXXX ooooooooo",
"o.XXXXXXXXXoXXX oooooooo",
"o.XXXXXXXXXXXXX oooooooo",
".XXXXXXXXXXXXXXX ooooooo",
".XXXXXXXXXXXXXXX ooooooo",
".XXXXXXXXXXXXXXX ooooooo",
".XXXXXXXXXXXXXXX ooooooo",
".XXXXXXXXXXXXXXX ooooooo",
"o XXXXXXXXXXXXX oooooooo",
"o XXXXXXXXXXXXX oooooooo",
"oo XXXXXXXXXXX ooooooooo",
"ooo XXXXXXXXX   oooooooo",
"oooo  XXXXX    . ooooooo",
"oooooo     ooo  . oooooo",
"ooooooooooooooo  . ooooo",
"oooooooooooooooo  . oooo",
"ooooooooooooooooo  . ooo",
"oooooooooooooooooo  . oo",
"ooooooooooooooooooo  . o",
"oooooooooooooooooooo  . ",
"ooooooooooooooooooooo  ."
};
