/* XPM */
static char *icon_erase-noclear[] = {
/* columns rows colors chars-per-pixel */
"24 24 5 1",
"  c black",
". c #808080",
"X c #BBBBBB",
"o c #DDDDDD",
"O c gray100",
/* pixels */
"OOOOOOOOOOOOOooooooooooo",
"OOOOOOOOOOOOoooooooooooo",
"OOOOOOOOOOOooooooooooooo",
"OOOOOOOOOOooooooooooooo.",
"OOOOOOOOOXXXXXXXXXXXXX..",
"OOOOOOOOOXXXXXXXXXXXXX..",
"OOOOOOOOXXXXXXXXXXXXX...",
"OOOOOOOOXXXXXXXXXXXXX...",
"OOOOOOOOXXXXXXXXXXXXX...",
"OOOOOOOOXXXXXXXXXXXX....",
"OOOOOOOXXXXXXXXXXXXX....",
"OOOOOOOXXXXXXXXXXXXX...O",
"OOOOOOOXXXXXXXXXXXX...OO",
"OOOOOOXXXXXXXXXXXXX..OOO",
"OOOOOOXXXXXXXXXXXXX.OOOO",
"OOOOOO             OOOOO",
"OOOOO             OOOOOO",
"OOOO             OOOOOOO",
"OOO             OOOOOOOO",
"OO             OOOOOOOOO",
"O             OOOOOOOOOO",
"             OOOOOOOOOOO",
"            OOOOOOOOOOOO",
"           OOOOOOOOOOOOO"
};
