/* XPM */
static char *icon_airbrush[] = {
/* columns rows colors chars-per-pixel */
"24 24 8 1",
"  c black",
". c #323232",
"X c #646464",
"o c #808080",
"O c gray59",
"+ c #BBBBBB",
"@ c #DDDDDD",
"# c gray100",
/* pixels */
" #######################",
"# # ####################",
" # # # # ###############",
"# # # # #  O.###########",
" # # # # ooO.oo#########",
"# # ###oo++O.++oo#######",
" #####o++++O.++++@######",
"######Ooo++++++@@.######",
"######OOX@@@@@@...######",
"######OOOXXXXX.X..######",
"######OOXOXXXXX...######",
"######OOOXXXXX.X..######",
"######OOXOXXXXX...######",
"######OOOXXXXX.X..######",
"######OOXOXXXXX...######",
"######OOOXXXXX.X..######",
"######OOXOXXXXX...######",
"######OOOXXXXX.X..######",
"######OOXOXXXXX...######",
"######OOOXXXXX.X..######",
"######OOXOXXXXX...######",
"######OOOXXXXX.X..######",
"#######OXOXXXXX..#######",
"#########XXXXX.#########"
};
