/* XPM */
static char *icon_pencil[] = {
/* columns rows colors chars-per-pixel */
"24 24 5 1",
"  c black",
". c #444444",
"X c #808080",
"o c #BBBBBB",
"O c gray100",
/* pixels */
"OOOOOOOOOOOOOOOOXX......",
"OOOOOOOOOOOOOOOXX.......",
"OOOOOOOOOOOOOOXX........",
"OOOOOOOOOOOOOXX.........",
"OOOOOOOOOOOOXX..........",
"OOOOOOOOOOOXX.......... ",
"OOOOOOOOOOXX..........  ",
"OOOOOOOOOXX..........   ",
"OOOOOOOOXX..........    ",
"OOOOOOOooo.........     ",
"OOOOOOoooo........      ",
"OOOOOooooo.......      O",
"OOOOOoooooooo...      OO",
"OOOOooooooooo..      OOO",
"OOOOooooooooo.      OOOO",
"OOOOooooooooXXXX   OOOOO",
"OOOoooooooooXXXX  OOOOOO",
"OOOooooooooXXXX  OOOOOOO",
"OOoooooooXXXXXXOOOOOOOOO",
"OO  ooXXXXXXXOOOOOOOOOOO",
"O    XXXXXOOOOOOOOOOOOOO",
"O    XXOOOOOOOOOOOOOOOOO",
"    OOOOOOOOOOOOOOOOOOOO",
"  OOOOOOOOOOOOOOOOOOOOOO"
};
