/* XPM */
static char *icon_polygon_select2[] = {
/* columns rows colors chars-per-pixel */
"24 24 2 1 ",
"  c black",
". c white",
/* pixels */
".............. .........",
".............  .  ......",
"............  ...  .....",
"...........  .....  ....",
"................... ....",
"......... .......  .....",
"........  ......  ......",
".......  ......  .......",
"......  ................",
".....  ........  .......",
"................  ......",
"... .............  .....",
"..  ................  ..",
".  ..................  .",
"  ....................  ",
"........................",
".  ...................  ",
"... .................  .",
".....  .............  ..",
".......  ...............",
".......... ....... .....",
"........... .....  .....",
"............  ..  ......",
"...............  ......."
};
