/* XPM */
static char *icon_eraser[] = {
/* columns rows colors chars-per-pixel */
"24 24 4 1",
"  c #808080",
". c #BBBBBB",
"X c #DDDDDD",
"o c gray100",
/* pixels */
"ooooooooooooooooXXXXXXXX",
"oooooooooooooooXXXXXXXXX",
"ooooooooooooooXXXXXXXXXX",
"oooooooooooooXXXXXXXXXXX",
"ooooooooooooXXXXXXXXXXXX",
"oooooooooooXXXXXXXXXXXXX",
"ooooooooooXXXXXXXXXXXXX ",
"oooooooooXXXXXXXXXXXXX  ",
"ooooooooXXXXXXXXXXXXX   ",
"ooooooo.............    ",
"ooooooo.............    ",
"oooooo.............     ",
"oooooo.............     ",
"oooooo.............     ",
"oooooo............     o",
"ooooo.............    oo",
"ooooo.............   ooo",
"ooooo............   oooo",
"oooo.............  ooooo",
"oooo............. oooooo",
"oooooooooooooooooooooooo",
"oooooooooooooooooooooooo",
"oooooooooooooooooooooooo",
"oooooooooooooooooooooooo"
};
