/* XPM */
static char *icon_eraser[] = {
/* columns rows colors chars-per-pixel */
"24 24 4 1",
"  c #808080",
". c #BBBBBB",
"X c #DDDDDD",
"o c gray100",
/* pixels */
"oooooooooooooooooooooooo",
"oooooooooooooooooooooooo",
"ooooooooooooXXXXXXXXXXXX",
"oooooooooooXXXXXXXXXXXXX",
"ooooooooooXXXXXXXXXXXXX ",
"oooooooooXXXXXXXXXXXXX  ",
"ooooooooXXXXXXXXXXXXX   ",
"oooooooXXXXXXXXXXXXX    ",
"ooooooXXXXXXXXXXXXX     ",
"oooooXXXXXXXXXXXXX      ",
"ooooXXXXXXXXXXXXX       ",
"ooo.............        ",
"ooo.............       o",
"oo.............       oo",
"oo.............      ooo",
"oo.............     oooo",
"oo............     ooooo",
"o.............    oooooo",
"o.............   ooooooo",
"o............   oooooooo",
".............  ooooooooo",
"............. oooooooooo",
"oooooooooooooooooooooooo",
"oooooooooooooooooooooooo"
};
