/* XPM */
static char *icon_pencil[] = {
/* columns rows colors chars-per-pixel */
"24 24 7 1 ",
"  c black",
". c #9A6D5F",
"X c #D1AA21",
"o c #FFD800",
"O c #FFF52B",
"+ c #A48273",
"@ c white",
/* pixels */
"  @@@@@@@@@@@@@@@@@@@@@@",
"    @@@@@@@@@@@@@@@@@@@@",
"@    +@@@@@@@@@@@@@@@@@@",
"@  + +++@@@@@@@@@@@@@@@@",
"@@  +++++++@@@@@@@@@@@@@",
"@@..+++++++++@@@@@@@@@@@",
"@@...+++++++++@@@@@@@@@@",
"@@@..++++++++++@@@@@@@@@",
"@@@..++++++++++O@@@@@@@@",
"@@@...+++++++++OO@@@@@@@",
"@@@@..++++++ooooOO@@@@@@",
"@@@@...+++++oooooOO@@@@@",
"@@@@.....+++oooooooO@@@@",
"@@@@@....ooooooooooOO@@@",
"@@@@@....XooooooooooOO@@",
"@@@@@@X..XXooooooooooOO@",
"@@@@@@XXXXXXooooooooooOO",
"@@@@@@@XXXXXXooooooooooO",
"@@@@@@@@XXXXXXoooooooooo",
"@@@@@@@@@XXXXXXooooooooo",
"@@@@@@@@@@XXXXXXoooooooo",
"@@@@@@@@@@@XXXXXXooooooo",
"@@@@@@@@@@@@XXXXXXoooooo",
"@@@@@@@@@@@@@XXXXXXooooo"
};
