/* XPM */
static char *icon_select_rectangle[] = {
/* columns rows colors chars-per-pixel */
"24 24 2 1",
"  c black",
". c gray100",
/* pixels */
"    .    .    .    .    ",
"........................",
" ...................... ",
" ...................... ",
" ...................... ",
" ...................... ",
"........................",
" ...................... ",
" ...................... ",
" ...................... ",
" ...................... ",
"........................",
" ...................... ",
" ...................... ",
" ...................... ",
" ...................... ",
"........................",
" ...................... ",
" ...................... ",
" ...................... ",
" ...................... ",
"........................",
" ...................... ",
"   .    .    .    .     "
};
