/* XPM */
static char *PolygonSelect[] = {
/* columns rows colors chars-per-pixel */
"24 24 83 1",
"  c black",
". c gray1",
"X c #090909",
"o c #0C0C0C",
"O c #1B1B1B",
"+ c gray11",
"@ c #222222",
"# c #232323",
"$ c gray27",
"% c gray28",
"& c #565656",
"* c #585858",
"= c gray36",
"- c #5D5D5D",
"; c gray37",
": c #626262",
"> c gray40",
", c #686868",
"< c #6A6A6A",
"1 c #717171",
"2 c gray50",
"3 c gray51",
"4 c #848484",
"5 c #8D8D8D",
"6 c gray56",
"7 c #929292",
"8 c gray59",
"9 c #979797",
"0 c #989898",
"q c gray61",
"w c gray62",
"e c #9F9F9F",
"r c #A0A0A0",
"t c gray63",
"y c #A2A2A2",
"u c #A4A4A4",
"i c gray65",
"p c gray66",
"a c #A9A9A9",
"s c #AAAAAA",
"d c gray67",
"f c #AEAEAE",
"g c #AFAFAF",
"h c #B1B1B1",
"j c #B2B2B2",
"k c #B4B4B4",
"l c #B7B7B7",
"z c gray72",
"x c #B9B9B9",
"c c gray73",
"v c gray",
"b c #C0C0C0",
"n c gray77",
"m c #C6C6C6",
"M c gray78",
"N c #CBCBCB",
"B c #CDCDCD",
"V c #CECECE",
"C c gray82",
"Z c LightGray",
"A c #D8D8D8",
"S c gray85",
"D c gainsboro",
"F c gray87",
"G c gray88",
"H c #E1E1E1",
"J c #E2E2E2",
"K c gray89",
"L c #E4E4E4",
"P c #E6E6E6",
"I c #E9E9E9",
"U c gray94",
"Y c #F1F1F1",
"T c gray95",
"R c #F3F3F3",
"E c #F4F4F4",
"W c gray96",
"Q c gray98",
"! c #FBFBFB",
"~ c gray99",
"^ c #FDFDFD",
"/ c #FEFEFE",
"( c gray100",
/* pixels */
"((((((((((((((((((((((((",
"(((RW(((((((((((((((((((",
"((f XF(#.F((((((((((((((",
"((d6((((!U;(((((((((((((",
"(((((((((To(((((((((((((",
"((SH((((((j(((((((((((((",
"((:q((((((((((((((((((((",
"((3n((((((=T((((((((((((",
"((((((((((+J((((((((((((",
"((MY((((((vE1,!(>-Q!e(((",
"((@D((((((((98~(yt^Z#(((",
"((&T(((((((((((((((Hr(((",
"((((((((((((((((((((((((",
"(~c((((((((((((((((Vg(((",
"(KO((((((((((((((((51(((",
"(G<((((((((((((((((bn(((",
"((((((((((((((((((((((((",
"(IN((((((((((((((((aC(((",
"(u-((((((((((((((((%l(((",
"(k0((((((((((((((((rP(((",
"((AxL(!(((((((((((((((((",
"((z$5(7X4(s*h(BpD(T2W(((",
"(((((((WU(Gim(c&w(7o/(((",
"(((((((((((((((((((((((("
};
