/* XPM */
static char *Shapes[] = {
/* columns rows colors chars-per-pixel */
"24 24 135 2",
"   c #766200",
".  c #7B6600",
"X  c #7C6700",
"o  c #7D6800",
"O  c #7E6800",
"+  c #7E6900",
"@  c #7F6900",
"#  c #806A00",
"$  c #816B00",
"%  c #816D07",
"&  c #856F02",
"*  c #8C7400",
"=  c #8D7605",
"-  c #8F7809",
";  c #85721B",
":  c #87741A",
">  c #8B761A",
",  c #8D7812",
"<  c #957C00",
"1  c #957D09",
"2  c #967F11",
"3  c #907F26",
"4  c #9C8100",
"5  c #9F8A26",
"6  c #95863B",
"7  c #96863C",
"8  c #9A893A",
"9  c #A28700",
"0  c #A68A01",
"q  c #AC8E00",
"w  c #AE9000",
"e  c #B39400",
"r  c #B3960E",
"t  c #BD9C02",
"y  c #9E904B",
"u  c #A18D41",
"i  c #A0924F",
"p  c #A49757",
"a  c #ACA065",
"s  c #B1A66F",
"d  c #B4A974",
"f  c #B7AD7A",
"g  c #B8AE7C",
"h  c #B9AE7D",
"j  c #BDAF78",
"k  c #BEB07A",
"l  c #C09F00",
"z  c #C3A100",
"x  c #CEAA00",
"c  c #CEAB00",
"v  c #CCAA0A",
"b  c #D4AF00",
"n  c #DAB400",
"m  c #DCB707",
"M  c #DEB800",
"N  c #DFBF37",
"B  c #E4BC00",
"V  c #E4BD00",
"C  c #E2BE1E",
"Z  c #C8B057",
"A  c #E9C100",
"S  c #EBC200",
"D  c #ECC300",
"F  c #EEC500",
"G  c #E9C20C",
"H  c #EEC611",
"J  c #EEC81A",
"K  c #F1C700",
"L  c #F3C900",
"P  c #F1C804",
"I  c #F4CA00",
"U  c #F5CB00",
"Y  c #F6CB00",
"T  c #F6CC00",
"R  c #F7CC00",
"E  c #F8CD00",
"W  c #F9CE00",
"Q  c #FBCF00",
"!  c #F8CE04",
"~  c #FBD000",
"^  c #FCD000",
"/  c #FCD100",
"(  c #FDD200",
")  c #FED200",
"_  c #FFD300",
"`  c #FAD111",
"'  c #FFD515",
"]  c #E2C23C",
"[  c #FFD725",
"{  c #FFD935",
"}  c #DEC04C",
"|  c #DCC05A",
" . c #E6C95E",
".. c #ECD06F",
"X. c #FFDF6D",
"o. c #FEDF70",
"O. c #CAC29D",
"+. c #CBC39F",
"@. c #CCC5A1",
"#. c #CDC5A2",
"$. c #CEC6A4",
"%. c #D0CAA9",
"&. c #D1CAAA",
"*. c #DDCCA1",
"=. c #DDCDA1",
"-. c #DDCFA9",
";. c #DBD2B4",
":. c #D9D4BA",
">. c #DBD6BD",
",. c #E2CA81",
"<. c #EDD383",
"1. c #EED58A",
"2. c #F1D997",
"3. c #F3DC97",
"4. c #E3D0A3",
"5. c #ECD7AD",
"6. c #E4DABD",
"7. c #F1DAA6",
"8. c #F3DCA1",
"9. c #F6DEA5",
"0. c #F2DCAE",
"q. c #F4DEB0",
"w. c #E4E0CD",
"e. c #EDE6D5",
"r. c #ECEADD",
"t. c #F1EEE5",
"y. c #F3F2EA",
"u. c #F6F4EC",
"i. c #F7F5ED",
"p. c #F7F6F1",
"a. c #F8F7F2",
"s. c #F9F8F4",
"d. c #FCFCFB",
"f. c #FDFDFC",
"g. c gray100",
/* pixels */
"g.g.g.g.g.g.g.g.g.g.d.;.g.g.g.g.g.g.g.g.g.g.g.g.",
"g.g.g.g.g.g.g.g.g.g.-.u y.g.g.g.g.g.g.g.g.g.g.g.",
"g.g.g.g.g.g.g.g.g.u.0.r a g.g.g.g.g.g.g.g.g.g.g.",
"g.g.g.g.g.g.g.g.g.*.N R & w.g.g.g.g.g.g.g.g.g.g.",
"g.g.g.g.g.g.g.g.e.8.R _ c 6 g.g.g.g.g.g.g.g.g.g.",
"g.g.g.g.g.g.g.g.4.C _ _ _ < $.g.g.g.g.g.g.g.g.g.",
"g.g.g.g.g.g.g.6.<._ _ _ _ B ; s.g.g.g.g.g.g.g.g.",
"g.g.g.g.g.g.g.5.G _ _ _ _ _ q f g.g.g.g.g.g.g.g.",
"g.g.g.g.g.g.-. ._ _ _ _ _ _ L % r.g.g.g.g.g.g.g.",
"g.g.g.g.g.i.q.P _ _ _ _ _ _ _ z y g.g.g.g.g.g.g.",
"g.g.g.g.g.*.] _ _ _ _ _ _ _ _ _ * :.g.g.g.g.g.g.",
"g.7.o.o...9.Q _ _ _ _ _ _ _ _ _ n : j O.p.g.g.g.",
"g.3._ _ Z > @ @ # # # o X o . . .   t c 2 &.g.g.",
"g.3._ _ L R R R R R R R H 1.` Q Q Q _ _ Q 0 #.g.",
"g.3._ _ _ _ _ _ _ _ _ _ ,.' _ _ _ _ _ _ _ _ 1 t.",
"g.3._ _ _ _ _ _ _ _ _ J X._ _ _ _ _ _ _ _ _ b h ",
"g.3._ _ _ _ _ _ _ _ _ } { _ _ _ _ _ _ _ _ _ R 7 ",
"g.3._ _ _ _ _ _ _ _ _ | [ _ _ _ _ _ _ _ _ _ Q 5 ",
"g.3._ _ _ _ _ _ _ _ _ v m _ _ _ _ _ _ _ _ _ L 6 ",
"g.3._ _ _ _ _ _ _ _ _ A w _ _ _ _ _ _ _ _ _ c g ",
"g.3._ _ _ _ _ _ _ _ _ _ 9 A _ _ _ _ _ _ _ R - t.",
"g.3._ _ _ _ _ _ _ _ _ _ L = A _ _ _ _ _ R 4 @.g.",
"g.2.! I R L I R I R R I I 5 8 e M F V t , %.g.g.",
"g.k y y y y y y y y y y y s g.>.d p a O.p.g.g.g."
};
